<?xml version="1.0" standalone="no"?>
<!DOCTYPE svg PUBLIC "-//W3C//DTD SVG 20010904//EN"
 "http://www.w3.org/TR/2001/REC-SVG-20010904/DTD/svg10.dtd">
<svg version="1.0" xmlns="http://www.w3.org/2000/svg"
 width="128.000000pt" height="128.000000pt" viewBox="0 0 128.000000 128.000000"
 preserveAspectRatio="xMidYMid meet">

<g transform="translate(0.000000,128.000000) scale(0.100000,-0.100000)"
fill="#000000" stroke="none">
<path d="M525 1188 c-154 -29 -314 -154 -386 -304 -44 -91 -72 -231 -53 -262
27 -43 74 -19 74 37 0 100 55 227 137 312 175 183 470 198 655 31 l41 -37 -88
-5 c-69 -4 -90 -9 -99 -23 -8 -12 -8 -22 0 -35 10 -15 31 -17 151 -20 111 -2
143 0 152 12 8 9 11 57 9 151 -3 119 -5 139 -20 149 -13 8 -23 8 -35 0 -14 -9
-19 -28 -21 -83 l-3 -71 -53 40 c-133 100 -298 139 -461 108z"/>
<path d="M1133 668 c-4 -7 -13 -48 -19 -90 -42 -284 -318 -473 -587 -403 -76
20 -148 57 -199 103 l-41 37 88 5 c69 4 90 9 99 23 8 12 8 22 0 35 -10 15 -30
17 -149 20 -94 2 -142 -1 -151 -9 -12 -9 -14 -41 -12 -152 3 -120 5 -141 20
-151 13 -8 23 -8 35 0 14 9 19 28 21 83 l3 71 53 -40 c188 -142 435 -156 638
-37 57 33 152 128 185 185 61 103 102 282 73 317 -15 18 -46 20 -57 3z"/>
</g>
</svg>
